HIERARCHY
ROOT joint_Root
{
	OFFSET 0.0 0.0 0.0
	CHANNELS 6 Xposition Yposition Zposition Zrotation Xrotation Yrotation 
	JOINT Hips
	{
		OFFSET 4.5925 91.4895 -427.239
		CHANNELS 6 Xposition Yposition Zposition Zrotation Xrotation Yrotation 
		JOINT Spine
		{
			OFFSET 15.7357 0.0 0.0
			CHANNELS 6 Xposition Yposition Zposition Zrotation Xrotation Yrotation 
			JOINT Chest
			{
				OFFSET 8.98455 -0.406207 0.0
				CHANNELS 6 Xposition Yposition Zposition Zrotation Xrotation Yrotation 
				JOINT Neck
				{
					OFFSET 16.3773 0.0 0.0
					CHANNELS 6 Xposition Yposition Zposition Zrotation Xrotation Yrotation 
					JOINT Head
					{
						OFFSET 6.45672 0.0 0.0
						CHANNELS 6 Xposition Yposition Zposition Zrotation Xrotation Yrotation 
						End Site
						{
							OFFSET 0.0 0.0 0.0
						}
					}
				}
				JOINT Shoulder_L
				{
					OFFSET 12.9942 -0.242716 4.98039
					CHANNELS 6 Xposition Yposition Zposition Zrotation Xrotation Yrotation 
					JOINT UpperArm_L
					{
						OFFSET 5.34809 0.0 0.0
						CHANNELS 6 Xposition Yposition Zposition Zrotation Xrotation Yrotation 
						JOINT LowerArm_L
						{
							OFFSET 24.3286 1.87007e-05 0.0
							CHANNELS 6 Xposition Yposition Zposition Zrotation Xrotation Yrotation 
							JOINT Hand_L
							{
								OFFSET 22.2916 0.0 0.0
								CHANNELS 6 Xposition Yposition Zposition Zrotation Xrotation Yrotation 
								End Site
								{
									OFFSET 0.0 0.0 0.0
								}
							}
						}
					}
				}
				JOINT Shoulder_R
				{
					OFFSET 12.9945 -0.242716 -4.98039
					CHANNELS 6 Xposition Yposition Zposition Zrotation Xrotation Yrotation 
					JOINT UpperArm_R
					{
						OFFSET -5.34813 0.0 0.0
						CHANNELS 6 Xposition Yposition Zposition Zrotation Xrotation Yrotation 
						JOINT LowerArm_R
						{
							OFFSET -24.3289 0.000322201 0.0
							CHANNELS 6 Xposition Yposition Zposition Zrotation Xrotation Yrotation 
							JOINT Hand_R
							{
								OFFSET -22.2915 -0.000108084 0.0
								CHANNELS 6 Xposition Yposition Zposition Zrotation Xrotation Yrotation 
								End Site
								{
									OFFSET 0.0 0.0 0.0
								}
							}
						}
					}
				}
			}
		}
		JOINT UpperLeg_L
		{
			OFFSET -2.19248 -6.46944 0.0
			CHANNELS 6 Xposition Yposition Zposition Zrotation Xrotation Yrotation 
			JOINT LowerLeg_L
			{
				OFFSET 39.0811 0.0 -1.23785e-05
				CHANNELS 6 Xposition Yposition Zposition Zrotation Xrotation Yrotation 
				JOINT Foot_L
				{
					OFFSET 40.9854 0.0 -1.26872e-05
					CHANNELS 6 Xposition Yposition Zposition Zrotation Xrotation Yrotation 
					JOINT Toes_L
					{
						OFFSET 11.7543 0.0 0.0
						CHANNELS 6 Xposition Yposition Zposition Zrotation Xrotation Yrotation 
						End Site
						{
							OFFSET 0.0 0.0 0.0
						}
					}
				}
			}
		}
		JOINT UpperLeg_R
		{
			OFFSET -2.19251 6.46944 0.0
			CHANNELS 6 Xposition Yposition Zposition Zrotation Xrotation Yrotation 
			JOINT LowerLeg_R
			{
				OFFSET -39.0811 -0.00228153 -0.0401928
				CHANNELS 6 Xposition Yposition Zposition Zrotation Xrotation Yrotation 
				JOINT Foot_R
				{
					OFFSET -40.9854 0.0 0.0
					CHANNELS 6 Xposition Yposition Zposition Zrotation Xrotation Yrotation 
					JOINT Toes_R
					{
						OFFSET -11.7543 0.0 0.0
						CHANNELS 6 Xposition Yposition Zposition Zrotation Xrotation Yrotation 
						End Site
						{
							OFFSET 0.0 0.0 0.0
						}
					}
				}
			}
		}
	}
}
MOTION
Frames:	5
Frame Time:	0.0333333
0.000000 0.000000 0.000000 0.000000 0.000000 -0.000000 -2.907370 86.794500 -0.371363 86.585100 -0.198186 9.069600 15.735700 0.000005 -0.000001 86.415800 82.333400 -86.503500 8.984550 -0.406207 -0.000000 7.537140 -0.954672 -0.112377 16.377300 -0.000001 -0.000001 -0.691293 -2.137840 2.426930 6.456720 -0.000001 -0.000000 -5.705190 -0.187423 4.165310 12.994200 -0.242716 4.980390 -91.582700 5.035750 -72.527700 5.348090 -0.000007 -0.000001 -62.026900 35.557000 -15.809800 24.328600 0.000019 0.000005 5.899530 11.157000 -28.102200 22.291600 -0.000001 0.000005 11.964700 5.222870 2.139030 12.994500 -0.242716 -4.980390 87.405900 12.038600 -77.744300 -5.348130 -0.000001 -0.000004 -65.083400 20.303800 0.801060 -24.328900 0.000322 -0.000009 0.591727 2.989310 -11.265500 -22.291500 -0.000108 -0.000004 2.426010 5.027380 6.730510 -2.192480 -6.469440 -0.000000 -171.137000 -5.758370 -10.712100 39.081100 -0.000007 -0.000012 -0.444042 0.390762 48.652900 40.985400 -0.000006 -0.000013 -1.980560 3.245600 -78.820400 11.754300 -0.000000 0.000003 -0.000370 -0.003099 -16.692200 -2.192510 6.469440 -0.000001 -179.769000 18.286100 170.869000 -39.081100 -0.002282 -0.040193 0.066929 -0.059008 47.176900 -40.985400 0.000008 0.000006 7.298810 4.866160 -78.652300 -11.754300 -0.000006 -0.000006 -0.002056 -0.029413 -17.769100
0.000000 0.000000 0.000000 0.000000 0.000000 -0.000000 -3.334200 88.170500 -0.195868 86.969700 3.438570 7.788540 15.735700 0.000005 -0.000001 90.313200 83.439200 -91.435900 8.984550 -0.406207 -0.000000 5.357200 0.095147 -2.247210 16.377300 -0.000001 -0.000001 0.943356 -2.539680 2.429000 6.456720 -0.000001 -0.000000 -4.038980 -1.612430 3.818180 12.994200 -0.242716 4.980390 -91.604600 4.855970 -71.689700 5.348090 -0.000007 -0.000001 -63.006900 33.429900 -15.537300 24.328600 0.000019 0.000005 5.244960 10.161100 -27.490100 22.291600 -0.000001 0.000005 12.536300 5.206390 2.558560 12.994500 -0.242716 -4.980390 87.867300 9.964710 -77.854700 -5.348130 -0.000001 -0.000004 -62.920300 17.326100 -5.910600 -24.328900 0.000322 -0.000009 1.939080 10.819900 -10.228900 -22.291500 -0.000108 -0.000004 -7.726770 5.012000 7.069490 -2.192480 -6.469440 -0.000000 -171.515000 -4.694990 -10.140900 39.081100 -0.000007 -0.000012 -0.363621 0.382966 43.516500 40.985400 -0.000006 -0.000013 -1.577030 5.263100 -75.894100 11.754300 -0.000000 0.000003 -0.000307 -0.002651 -16.676300 -2.192510 6.469440 -0.000001 -179.767000 20.614100 172.296000 -39.081100 -0.002282 -0.040193 0.060535 -0.063230 42.164500 -40.985400 0.000008 0.000006 6.909150 4.131970 -76.189400 -11.754300 -0.000006 -0.000006 -0.002361 -0.033151 -17.921100
0.000000 0.000000 0.000000 0.000000 0.000000 -0.000000 -3.435780 89.498300 -0.248112 87.607900 4.985820 6.368910 15.735700 0.000005 -0.000001 94.180400 84.535000 -96.381600 8.984550 -0.406207 -0.000000 3.156010 0.884372 -4.422100 16.377300 -0.000001 -0.000001 3.167140 -1.932850 2.470260 6.456720 -0.000001 -0.000000 -2.509540 -1.902810 3.146600 12.994200 -0.242716 4.980390 -91.526200 4.221880 -70.104400 5.348090 -0.000007 -0.000001 -64.501500 30.546500 -13.320000 24.328600 0.000019 0.000005 5.458710 9.971200 -28.893700 22.291600 -0.000001 0.000005 12.648300 5.207510 2.530000 12.994500 -0.242716 -4.980390 88.351800 7.808680 -78.042000 -5.348130 -0.000001 -0.000004 -57.984200 8.373090 -16.811000 -24.328900 0.000322 -0.000009 1.805430 7.023630 -14.484400 -22.291500 -0.000108 -0.000004 -4.557410 5.027870 6.764190 -2.192480 -6.469440 -0.000000 -172.322000 -4.722100 -9.112050 39.081100 -0.000007 -0.000012 -0.275199 0.353425 37.907100 40.985400 -0.000006 -0.000013 -1.469300 6.215560 -72.806600 11.754300 -0.000000 0.000003 -0.000201 -0.001863 -16.647800 -2.192510 6.469440 -0.000001 -179.929000 21.500600 173.373000 -39.081100 -0.002282 -0.040193 0.049354 -0.061089 37.020400 -40.985400 0.000008 0.000006 6.648230 4.169350 -73.423800 -11.754300 -0.000006 -0.000006 -0.002589 -0.035857 -18.031200
0.000000 0.000000 0.000000 0.000000 0.000000 -0.000000 -3.335610 90.352300 -0.359588 88.177000 5.121710 5.853410 15.735700 0.000005 -0.000001 99.819400 85.077800 -102.576000 8.984550 -0.406207 -0.000000 1.984770 1.816760 -5.540710 16.377300 -0.000001 -0.000001 4.771670 -1.558820 1.534300 6.456720 -0.000001 -0.000000 -1.176970 -1.766580 1.550460 12.994200 -0.242716 4.980390 -91.525400 3.993020 -69.072800 5.348090 -0.000007 -0.000001 -65.990400 27.474900 -10.122500 24.328600 0.000019 0.000005 5.465940 9.130480 -31.091400 22.291600 -0.000001 0.000005 12.125300 5.233940 1.852850 12.994500 -0.242716 -4.980390 88.701300 6.197240 -78.140400 -5.348130 -0.000001 -0.000004 -51.673100 -2.685730 -30.806500 -24.328900 0.000322 -0.000009 -1.493730 -3.506000 -23.017900 -22.291500 -0.000108 -0.000004 9.554120 5.269690 1.049760 -2.192480 -6.469440 -0.000000 -172.956000 -5.736810 -7.580060 39.081100 -0.000007 -0.000012 -0.225574 0.337394 33.766200 40.985400 -0.000006 -0.000013 -1.312070 6.949600 -70.621900 11.754300 -0.000000 0.000003 -0.000132 -0.001307 -16.627400 -2.192510 6.469440 -0.000001 179.605000 21.519700 174.724000 -39.081100 -0.002282 -0.040193 0.042452 -0.059767 33.231400 -40.985400 0.000008 0.000006 6.600670 4.505250 -71.672200 -11.754300 -0.000006 -0.000006 -0.002956 -0.040098 -18.203800
0.000000 0.000000 0.000000 0.000000 0.000000 -0.000000 -3.187020 90.697300 -0.582400 88.547600 5.216570 5.942060 15.735700 0.000005 -0.000001 104.051000 85.007500 -106.807000 8.984550 -0.406207 -0.000000 1.989710 2.561360 -5.552870 16.377300 -0.000001 -0.000001 5.193580 -1.085610 0.478437 6.456720 -0.000001 -0.000000 -0.707125 -1.726420 -1.439360 12.994200 -0.242716 4.980390 -91.666100 4.272030 -68.670800 5.348090 -0.000007 -0.000001 -66.514500 25.655600 -8.031610 24.328600 0.000019 0.000005 4.753080 7.614000 -32.109400 22.291600 -0.000001 0.000005 12.005300 5.253050 1.352170 12.994500 -0.242716 -4.980390 89.268500 3.931790 -79.454300 -5.348130 -0.000001 -0.000004 -47.090800 -17.160400 -45.035700 -24.328900 0.000322 -0.000009 -4.624660 -6.336940 -36.233500 -22.291500 -0.000108 -0.000004 18.923100 5.467380 -5.280590 -2.192480 -6.469440 -0.000000 -173.274000 -7.045830 -6.689640 39.081100 -0.000007 -0.000012 -0.196508 0.314945 31.962200 40.985400 -0.000006 -0.000013 -0.935448 8.134690 -69.544200 11.754300 -0.000000 0.000003 -0.000116 -0.001169 -16.622200 -2.192510 6.469440 -0.000001 178.929000 22.291500 175.936000 -39.081100 -0.002282 -0.040193 0.037455 -0.056547 31.133100 -40.985400 0.000008 0.000006 6.738720 5.399490 -71.411900 -11.754300 -0.000006 -0.000006 -0.003104 -0.041774 -18.272000
